<?xml version="1.0" standalone="no"?>
<!DOCTYPE svg PUBLIC "-//W3C//DTD SVG 20010904//EN"
 "http://www.w3.org/TR/2001/REC-SVG-20010904/DTD/svg10.dtd">
<svg version="1.0" xmlns="http://www.w3.org/2000/svg"
 width="355.000000pt" height="355.000000pt" viewBox="0 0 355.000000 355.000000"
 preserveAspectRatio="xMidYMid meet">
<metadata>
Created by potrace 1.14, written by Peter Selinger 2001-2017
</metadata>
<g transform="translate(0.000000,355.000000) scale(0.100000,-0.100000)"
fill="#000000" stroke="none">
<path d="M1685 3539 c-249 -35 -449 -177 -550 -390 -52 -111 -69 -187 -69
-314 0 -127 21 -211 84 -336 56 -111 70 -168 70 -279 0 -143 -41 -249 -138
-352 -97 -104 -189 -143 -386 -163 -187 -20 -270 -46 -384 -124 -209 -142
-333 -414 -301 -659 37 -282 217 -500 484 -589 70 -23 96 -27 210 -27 114 0
140 4 210 27 163 54 292 157 399 320 110 167 259 250 451 249 195 0 333 -81
457 -265 96 -142 190 -225 324 -286 278 -124 632 -49 821 175 181 214 221 506
103 760 -118 256 -324 392 -625 414 -140 11 -198 26 -280 75 -212 128 -310
374 -238 600 9 28 35 88 58 135 63 126 79 194 79 335 1 99 -3 133 -23 195 -50
163 -148 297 -283 386 -86 58 -175 91 -288 110 -93 15 -98 15 -185 3z m226
-203 c175 -53 317 -212 350 -391 14 -74 6 -194 -17 -260 -84 -242 -356 -393
-597 -330 -128 33 -225 101 -301 209 -53 76 -71 120 -85 216 -40 265 156 531
424 573 48 8 176 -2 226 -17z m-1104 -1860 c85 -23 159 -63 222 -122 144 -133
197 -300 152 -476 -29 -113 -49 -149 -135 -244 -63 -69 -174 -127 -278 -144
-296 -50 -579 189 -579 491 -1 103 8 142 48 227 79 169 256 280 448 281 39 0
93 -5 122 -13z m2145 -1 c25 -7 49 -11 52 -8 3 4 6 2 6 -4 0 -6 27 -21 60 -33
33 -12 64 -29 69 -37 4 -8 12 -13 17 -12 5 2 39 -34 75 -79 81 -100 109 -175
116 -308 9 -149 -36 -256 -157 -375 -66 -66 -88 -81 -161 -109 -76 -30 -94
-33 -189 -33 -86 -1 -116 4 -165 23 -169 65 -285 195 -329 367 -46 176 12 357
155 487 32 29 84 65 115 80 102 50 243 67 336 41z"/>
<path d="M1698 3309 c-156 -25 -280 -114 -348 -249 -125 -245 -5 -555 250
-645 280 -99 573 72 622 363 51 304 -221 581 -524 531z m159 -200 c118 -45
191 -158 181 -283 -6 -75 -33 -130 -88 -180 -106 -96 -243 -102 -356 -17 -69
52 -104 123 -104 212 0 137 78 240 208 275 67 18 94 17 159 -7z"/>
<path d="M606 1439 c-119 -20 -261 -120 -318 -225 -162 -298 37 -662 373 -681
276 -17 489 190 489 474 0 66 -4 82 -44 166 -53 111 -122 182 -220 228 -94 44
-178 56 -280 38z m199 -199 c55 -26 109 -80 138 -134 16 -31 21 -60 21 -116 1
-89 -27 -154 -92 -212 -115 -104 -297 -87 -396 36 -56 70 -69 110 -64 192 8
115 64 194 174 240 71 30 149 28 219 -6z"/>
<path d="M2690 1416 c-91 -33 -117 -48 -177 -106 -98 -95 -153 -253 -133 -385
48 -324 377 -502 667 -360 114 56 185 136 233 260 18 48 23 80 23 160 0 94 -2
105 -36 177 -60 130 -166 221 -304 263 -75 23 -196 19 -273 -9z m242 -182
c140 -47 218 -216 165 -356 -20 -52 -96 -129 -149 -151 -100 -42 -202 -26
-282 44 -67 59 -99 127 -99 209 0 187 184 316 365 254z"/>
</g>
</svg>
